<mxfile host="Electron" modified="2024-03-18T04:52:58.803Z" agent="Mozilla/5.0 (Macintosh; Intel Mac OS X 10_15_7) AppleWebKit/537.36 (KHTML, like Gecko) draw.io/24.0.4 Chrome/120.0.6099.109 Electron/28.1.0 Safari/537.36" etag="ee-6TL72CMfTlyg_FNy7" version="24.0.4" type="device">
  <diagram name="Page-1" id="HHTXaT1K1Qac4l2XvUOu">
    <mxGraphModel dx="4073" dy="1965" grid="1" gridSize="10" guides="1" tooltips="1" connect="1" arrows="1" fold="1" page="1" pageScale="1" pageWidth="1100" pageHeight="850" math="0" shadow="0">
      <root>
        <mxCell id="0" />
        <mxCell id="1" parent="0" />
        <mxCell id="TWjn_tjf3bWAZkSlmMyw-79" value="" style="group" vertex="1" connectable="0" parent="1">
          <mxGeometry x="-320" y="210" width="160" height="270" as="geometry" />
        </mxCell>
        <mxCell id="TWjn_tjf3bWAZkSlmMyw-7" value="" style="rounded=0;whiteSpace=wrap;html=1;" vertex="1" parent="TWjn_tjf3bWAZkSlmMyw-79">
          <mxGeometry y="30" width="160" height="240" as="geometry" />
        </mxCell>
        <mxCell id="TWjn_tjf3bWAZkSlmMyw-50" value="M0" style="text;html=1;align=left;verticalAlign=middle;whiteSpace=wrap;rounded=0;" vertex="1" parent="TWjn_tjf3bWAZkSlmMyw-79">
          <mxGeometry x="10" y="80" width="60" height="20" as="geometry" />
        </mxCell>
        <mxCell id="TWjn_tjf3bWAZkSlmMyw-52" value="M1" style="text;html=1;align=left;verticalAlign=middle;whiteSpace=wrap;rounded=0;" vertex="1" parent="TWjn_tjf3bWAZkSlmMyw-79">
          <mxGeometry x="10" y="100" width="60" height="20" as="geometry" />
        </mxCell>
        <mxCell id="TWjn_tjf3bWAZkSlmMyw-54" value="M2" style="text;html=1;align=left;verticalAlign=middle;whiteSpace=wrap;rounded=0;" vertex="1" parent="TWjn_tjf3bWAZkSlmMyw-79">
          <mxGeometry x="10" y="120" width="60" height="20" as="geometry" />
        </mxCell>
        <mxCell id="TWjn_tjf3bWAZkSlmMyw-55" value="RESET" style="text;html=1;align=left;verticalAlign=middle;whiteSpace=wrap;rounded=0;" vertex="1" parent="TWjn_tjf3bWAZkSlmMyw-79">
          <mxGeometry x="10" y="160" width="60" height="20" as="geometry" />
        </mxCell>
        <mxCell id="TWjn_tjf3bWAZkSlmMyw-56" value="SLEEP" style="text;html=1;align=left;verticalAlign=middle;whiteSpace=wrap;rounded=0;" vertex="1" parent="TWjn_tjf3bWAZkSlmMyw-79">
          <mxGeometry x="10" y="180" width="60" height="20" as="geometry" />
        </mxCell>
        <mxCell id="TWjn_tjf3bWAZkSlmMyw-57" value="STEP" style="text;html=1;align=left;verticalAlign=middle;whiteSpace=wrap;rounded=0;" vertex="1" parent="TWjn_tjf3bWAZkSlmMyw-79">
          <mxGeometry x="10" y="220" width="60" height="20" as="geometry" />
        </mxCell>
        <mxCell id="TWjn_tjf3bWAZkSlmMyw-58" value="DIR" style="text;html=1;align=left;verticalAlign=middle;whiteSpace=wrap;rounded=0;" vertex="1" parent="TWjn_tjf3bWAZkSlmMyw-79">
          <mxGeometry x="10" y="240" width="60" height="20" as="geometry" />
        </mxCell>
        <mxCell id="TWjn_tjf3bWAZkSlmMyw-59" value="VMOT" style="text;html=1;align=right;verticalAlign=middle;whiteSpace=wrap;rounded=0;" vertex="1" parent="TWjn_tjf3bWAZkSlmMyw-79">
          <mxGeometry x="90" y="40" width="60" height="20" as="geometry" />
        </mxCell>
        <mxCell id="TWjn_tjf3bWAZkSlmMyw-60" value="GND" style="text;html=1;align=right;verticalAlign=middle;whiteSpace=wrap;rounded=0;" vertex="1" parent="TWjn_tjf3bWAZkSlmMyw-79">
          <mxGeometry x="90" y="90" width="60" height="20" as="geometry" />
        </mxCell>
        <mxCell id="TWjn_tjf3bWAZkSlmMyw-61" value="B2" style="text;html=1;align=right;verticalAlign=middle;whiteSpace=wrap;rounded=0;" vertex="1" parent="TWjn_tjf3bWAZkSlmMyw-79">
          <mxGeometry x="90" y="160" width="60" height="20" as="geometry" />
        </mxCell>
        <mxCell id="TWjn_tjf3bWAZkSlmMyw-62" value="B1" style="text;html=1;align=right;verticalAlign=middle;whiteSpace=wrap;rounded=0;" vertex="1" parent="TWjn_tjf3bWAZkSlmMyw-79">
          <mxGeometry x="90" y="180" width="60" height="20" as="geometry" />
        </mxCell>
        <mxCell id="TWjn_tjf3bWAZkSlmMyw-63" value="A2" style="text;html=1;align=right;verticalAlign=middle;whiteSpace=wrap;rounded=0;" vertex="1" parent="TWjn_tjf3bWAZkSlmMyw-79">
          <mxGeometry x="90" y="220" width="60" height="20" as="geometry" />
        </mxCell>
        <mxCell id="TWjn_tjf3bWAZkSlmMyw-64" value="A1" style="text;html=1;align=right;verticalAlign=middle;whiteSpace=wrap;rounded=0;" vertex="1" parent="TWjn_tjf3bWAZkSlmMyw-79">
          <mxGeometry x="90" y="240" width="60" height="20" as="geometry" />
        </mxCell>
        <mxCell id="TWjn_tjf3bWAZkSlmMyw-65" value="EN" style="text;html=1;align=left;verticalAlign=middle;whiteSpace=wrap;rounded=0;" vertex="1" parent="TWjn_tjf3bWAZkSlmMyw-79">
          <mxGeometry x="10" y="40" width="60" height="20" as="geometry" />
        </mxCell>
        <mxCell id="TWjn_tjf3bWAZkSlmMyw-66" value="&lt;font style=&quot;font-size: 20px;&quot;&gt;DRV8255&lt;/font&gt;" style="text;html=1;align=center;verticalAlign=middle;whiteSpace=wrap;rounded=0;" vertex="1" parent="TWjn_tjf3bWAZkSlmMyw-79">
          <mxGeometry width="160" height="30" as="geometry" />
        </mxCell>
        <mxCell id="TWjn_tjf3bWAZkSlmMyw-1" value="" style="rounded=0;whiteSpace=wrap;html=1;" vertex="1" parent="1">
          <mxGeometry x="-560" y="590" width="160" height="230" as="geometry" />
        </mxCell>
        <mxCell id="TWjn_tjf3bWAZkSlmMyw-2" value="" style="rounded=0;whiteSpace=wrap;html=1;" vertex="1" parent="1">
          <mxGeometry x="-560" y="90" width="160" height="390" as="geometry" />
        </mxCell>
        <mxCell id="TWjn_tjf3bWAZkSlmMyw-9" value="&lt;font style=&quot;font-size: 29px;&quot;&gt;+&lt;/font&gt;&lt;div style=&quot;font-size: 29px;&quot;&gt;&lt;font style=&quot;font-size: 29px;&quot;&gt;-&lt;/font&gt;&lt;/div&gt;" style="ellipse;whiteSpace=wrap;html=1;aspect=fixed;" vertex="1" parent="1">
          <mxGeometry x="200" y="300" width="80" height="80" as="geometry" />
        </mxCell>
        <mxCell id="TWjn_tjf3bWAZkSlmMyw-10" value="&lt;font style=&quot;font-size: 29px;&quot;&gt;+&lt;/font&gt;&lt;div style=&quot;font-size: 29px;&quot;&gt;&lt;font style=&quot;font-size: 29px;&quot;&gt;-&lt;/font&gt;&lt;/div&gt;" style="ellipse;whiteSpace=wrap;html=1;aspect=fixed;strokeWidth=3;" vertex="1" parent="1">
          <mxGeometry x="-480" y="890" width="80" height="80" as="geometry" />
        </mxCell>
        <mxCell id="TWjn_tjf3bWAZkSlmMyw-70" style="edgeStyle=orthogonalEdgeStyle;rounded=0;orthogonalLoop=1;jettySize=auto;html=1;exitX=1;exitY=0.5;exitDx=0;exitDy=0;exitPerimeter=0;entryX=1;entryY=0.5;entryDx=0;entryDy=0;endArrow=none;endFill=0;align=right;strokeWidth=3;" edge="1" parent="1" source="TWjn_tjf3bWAZkSlmMyw-11" target="TWjn_tjf3bWAZkSlmMyw-60">
          <mxGeometry relative="1" as="geometry">
            <Array as="points">
              <mxPoint x="-135" y="310" />
            </Array>
          </mxGeometry>
        </mxCell>
        <mxCell id="TWjn_tjf3bWAZkSlmMyw-94" style="edgeStyle=orthogonalEdgeStyle;rounded=1;orthogonalLoop=1;jettySize=auto;html=1;exitX=0;exitY=0.5;exitDx=0;exitDy=0;exitPerimeter=0;entryX=0.5;entryY=0;entryDx=0;entryDy=0;endArrow=none;endFill=0;curved=0;fillColor=#f0a30a;strokeColor=#ff9900;strokeWidth=3;" edge="1" parent="1" source="TWjn_tjf3bWAZkSlmMyw-11" target="TWjn_tjf3bWAZkSlmMyw-9">
          <mxGeometry relative="1" as="geometry">
            <Array as="points">
              <mxPoint x="240" y="260" />
            </Array>
          </mxGeometry>
        </mxCell>
        <mxCell id="TWjn_tjf3bWAZkSlmMyw-11" value="" style="pointerEvents=1;verticalLabelPosition=bottom;shadow=0;dashed=0;align=center;html=1;verticalAlign=top;shape=mxgraph.electrical.capacitors.capacitor_3;strokeWidth=2;rotation=90;" vertex="1" parent="1">
          <mxGeometry x="-140" y="270" width="50" height="30" as="geometry" />
        </mxCell>
        <mxCell id="TWjn_tjf3bWAZkSlmMyw-69" style="edgeStyle=orthogonalEdgeStyle;rounded=1;orthogonalLoop=1;jettySize=auto;html=1;exitX=1;exitY=0.5;exitDx=0;exitDy=0;entryX=0;entryY=0.5;entryDx=0;entryDy=0;entryPerimeter=0;endArrow=none;endFill=0;align=right;curved=0;fillColor=#f0a30a;strokeColor=#ff9900;strokeWidth=3;" edge="1" parent="1" source="TWjn_tjf3bWAZkSlmMyw-59" target="TWjn_tjf3bWAZkSlmMyw-11">
          <mxGeometry relative="1" as="geometry">
            <Array as="points">
              <mxPoint x="-140" y="260" />
              <mxPoint x="-140" y="260" />
            </Array>
          </mxGeometry>
        </mxCell>
        <mxCell id="TWjn_tjf3bWAZkSlmMyw-78" value="" style="group" vertex="1" connectable="0" parent="1">
          <mxGeometry x="-320" y="60" width="160" height="120" as="geometry" />
        </mxCell>
        <mxCell id="TWjn_tjf3bWAZkSlmMyw-35" value="" style="rounded=0;whiteSpace=wrap;html=1;" vertex="1" parent="TWjn_tjf3bWAZkSlmMyw-78">
          <mxGeometry y="30" width="160" height="90" as="geometry" />
        </mxCell>
        <mxCell id="TWjn_tjf3bWAZkSlmMyw-71" value="&lt;font style=&quot;font-size: 20px;&quot;&gt;ADJ Buck&lt;/font&gt;" style="text;html=1;align=center;verticalAlign=middle;whiteSpace=wrap;rounded=0;" vertex="1" parent="TWjn_tjf3bWAZkSlmMyw-78">
          <mxGeometry width="160" height="30" as="geometry" />
        </mxCell>
        <mxCell id="TWjn_tjf3bWAZkSlmMyw-72" value="6V Out" style="text;html=1;align=left;verticalAlign=middle;whiteSpace=wrap;rounded=0;" vertex="1" parent="TWjn_tjf3bWAZkSlmMyw-78">
          <mxGeometry x="10" y="40" width="60" height="20" as="geometry" />
        </mxCell>
        <mxCell id="TWjn_tjf3bWAZkSlmMyw-73" value="GND" style="text;html=1;align=right;verticalAlign=middle;whiteSpace=wrap;rounded=0;" vertex="1" parent="TWjn_tjf3bWAZkSlmMyw-78">
          <mxGeometry x="90" y="90" width="60" height="20" as="geometry" />
        </mxCell>
        <mxCell id="TWjn_tjf3bWAZkSlmMyw-74" value="24V In" style="text;html=1;align=right;verticalAlign=middle;whiteSpace=wrap;rounded=0;" vertex="1" parent="TWjn_tjf3bWAZkSlmMyw-78">
          <mxGeometry x="90" y="40" width="60" height="20" as="geometry" />
        </mxCell>
        <mxCell id="TWjn_tjf3bWAZkSlmMyw-80" value="" style="group" vertex="1" connectable="0" parent="1">
          <mxGeometry x="-280" y="570" width="130" height="100" as="geometry" />
        </mxCell>
        <mxCell id="TWjn_tjf3bWAZkSlmMyw-34" value="" style="rounded=0;whiteSpace=wrap;html=1;" vertex="1" parent="TWjn_tjf3bWAZkSlmMyw-80">
          <mxGeometry width="130" height="100" as="geometry" />
        </mxCell>
        <mxCell id="TWjn_tjf3bWAZkSlmMyw-41" value="PWM" style="text;html=1;align=left;verticalAlign=middle;whiteSpace=wrap;rounded=0;rotation=0;" vertex="1" parent="TWjn_tjf3bWAZkSlmMyw-80">
          <mxGeometry x="10" y="40" width="50" height="20" as="geometry" />
        </mxCell>
        <mxCell id="TWjn_tjf3bWAZkSlmMyw-42" value="GND" style="text;html=1;align=left;verticalAlign=middle;whiteSpace=wrap;rounded=0;" vertex="1" parent="TWjn_tjf3bWAZkSlmMyw-80">
          <mxGeometry x="10" y="70" width="50" height="20" as="geometry" />
        </mxCell>
        <mxCell id="TWjn_tjf3bWAZkSlmMyw-45" value="&lt;font style=&quot;font-size: 20px;&quot;&gt;Servo&lt;/font&gt;" style="text;html=1;align=center;verticalAlign=middle;whiteSpace=wrap;rounded=0;" vertex="1" parent="TWjn_tjf3bWAZkSlmMyw-80">
          <mxGeometry x="70" y="33.338888888888896" width="50" height="33.333333333333336" as="geometry" />
        </mxCell>
        <mxCell id="TWjn_tjf3bWAZkSlmMyw-39" value="VCC" style="text;html=1;align=left;verticalAlign=middle;whiteSpace=wrap;rounded=0;" vertex="1" parent="TWjn_tjf3bWAZkSlmMyw-80">
          <mxGeometry x="10" y="10" width="50" height="20" as="geometry" />
        </mxCell>
        <mxCell id="TWjn_tjf3bWAZkSlmMyw-83" value="&lt;font style=&quot;font-size: 20px;&quot;&gt;Arduino Nano&lt;/font&gt;" style="text;html=1;align=center;verticalAlign=middle;whiteSpace=wrap;rounded=0;" vertex="1" parent="1">
          <mxGeometry x="-560" y="60" width="160" height="30" as="geometry" />
        </mxCell>
        <mxCell id="TWjn_tjf3bWAZkSlmMyw-84" value="Vin" style="text;html=1;align=right;verticalAlign=middle;whiteSpace=wrap;rounded=0;" vertex="1" parent="1">
          <mxGeometry x="-470" y="100" width="60" height="20" as="geometry" />
        </mxCell>
        <mxCell id="TWjn_tjf3bWAZkSlmMyw-91" value="" style="pointerEvents=1;verticalLabelPosition=bottom;shadow=0;dashed=0;align=center;html=1;verticalAlign=top;shape=mxgraph.electrical.signal_sources.signal_ground;strokeWidth=3;" vertex="1" parent="1">
          <mxGeometry x="-102.5" y="320" width="25" height="20" as="geometry" />
        </mxCell>
        <mxCell id="TWjn_tjf3bWAZkSlmMyw-92" style="edgeStyle=orthogonalEdgeStyle;rounded=1;orthogonalLoop=1;jettySize=auto;html=1;exitX=1;exitY=0.5;exitDx=0;exitDy=0;exitPerimeter=0;entryX=0.5;entryY=0;entryDx=0;entryDy=0;entryPerimeter=0;endArrow=none;endFill=0;strokeWidth=3;curved=0;" edge="1" parent="1" source="TWjn_tjf3bWAZkSlmMyw-11" target="TWjn_tjf3bWAZkSlmMyw-91">
          <mxGeometry relative="1" as="geometry" />
        </mxCell>
        <mxCell id="TWjn_tjf3bWAZkSlmMyw-95" style="edgeStyle=orthogonalEdgeStyle;rounded=1;orthogonalLoop=1;jettySize=auto;html=1;exitX=1;exitY=0.5;exitDx=0;exitDy=0;entryX=0.5;entryY=0;entryDx=0;entryDy=0;endArrow=none;endFill=0;curved=0;fillColor=#f0a30a;strokeColor=#ff9900;strokeWidth=3;" edge="1" parent="1" source="TWjn_tjf3bWAZkSlmMyw-74" target="TWjn_tjf3bWAZkSlmMyw-9">
          <mxGeometry relative="1" as="geometry">
            <mxPoint x="-105" y="270" as="sourcePoint" />
            <mxPoint x="300" y="410" as="targetPoint" />
            <Array as="points">
              <mxPoint x="150" y="110" />
              <mxPoint x="150" y="260" />
              <mxPoint x="240" y="260" />
            </Array>
          </mxGeometry>
        </mxCell>
        <mxCell id="TWjn_tjf3bWAZkSlmMyw-97" value="" style="group" vertex="1" connectable="0" parent="1">
          <mxGeometry x="-55" y="320" width="150" height="150" as="geometry" />
        </mxCell>
        <mxCell id="TWjn_tjf3bWAZkSlmMyw-96" value="" style="whiteSpace=wrap;html=1;aspect=fixed;" vertex="1" parent="TWjn_tjf3bWAZkSlmMyw-97">
          <mxGeometry width="150" height="150" as="geometry" />
        </mxCell>
        <mxCell id="TWjn_tjf3bWAZkSlmMyw-14" value="M" style="verticalLabelPosition=middle;shadow=0;dashed=0;align=center;html=1;verticalAlign=middle;strokeWidth=1;shape=ellipse;fontSize=32;perimeter=ellipsePerimeter;" vertex="1" parent="TWjn_tjf3bWAZkSlmMyw-97">
          <mxGeometry x="45" y="25" width="80" height="80" as="geometry" />
        </mxCell>
        <mxCell id="TWjn_tjf3bWAZkSlmMyw-31" value="" style="verticalLabelPosition=bottom;shadow=0;dashed=0;align=center;html=1;verticalAlign=top;shape=mxgraph.electrical.rot_mech.field;pointerEvents=1;strokeWidth=2;" vertex="1" parent="TWjn_tjf3bWAZkSlmMyw-97">
          <mxGeometry x="40" y="115" width="90" height="15" as="geometry" />
        </mxCell>
        <mxCell id="TWjn_tjf3bWAZkSlmMyw-32" value="" style="verticalLabelPosition=bottom;shadow=0;dashed=0;align=center;html=1;verticalAlign=top;shape=mxgraph.electrical.rot_mech.field;pointerEvents=1;rotation=90;strokeWidth=2;" vertex="1" parent="TWjn_tjf3bWAZkSlmMyw-97">
          <mxGeometry x="-9.75" y="62.75" width="80" height="15" as="geometry" />
        </mxCell>
        <mxCell id="TWjn_tjf3bWAZkSlmMyw-87" style="edgeStyle=orthogonalEdgeStyle;rounded=1;orthogonalLoop=1;jettySize=auto;html=1;exitX=1;exitY=0.5;exitDx=0;exitDy=0;entryX=1;entryY=1;entryDx=0;entryDy=0;entryPerimeter=0;endArrow=none;endFill=0;fillColor=#008a00;strokeColor=#007a00;strokeWidth=3;curved=0;" edge="1" parent="1" source="TWjn_tjf3bWAZkSlmMyw-64" target="TWjn_tjf3bWAZkSlmMyw-31">
          <mxGeometry relative="1" as="geometry">
            <Array as="points">
              <mxPoint x="-120" y="460" />
              <mxPoint x="-120" y="520" />
              <mxPoint x="75" y="520" />
            </Array>
          </mxGeometry>
        </mxCell>
        <mxCell id="TWjn_tjf3bWAZkSlmMyw-93" style="edgeStyle=orthogonalEdgeStyle;rounded=1;orthogonalLoop=1;jettySize=auto;html=1;exitX=1;exitY=0.5;exitDx=0;exitDy=0;entryX=0;entryY=1;entryDx=0;entryDy=0;entryPerimeter=0;endArrow=none;endFill=0;fillColor=#008a00;strokeColor=#007a00;strokeWidth=3;curved=0;" edge="1" parent="1" source="TWjn_tjf3bWAZkSlmMyw-63" target="TWjn_tjf3bWAZkSlmMyw-31">
          <mxGeometry relative="1" as="geometry">
            <mxPoint x="-160" y="470" as="sourcePoint" />
            <mxPoint x="85" y="450" as="targetPoint" />
            <Array as="points">
              <mxPoint x="-90" y="440" />
              <mxPoint x="-90" y="490" />
              <mxPoint x="-15" y="490" />
            </Array>
          </mxGeometry>
        </mxCell>
        <mxCell id="TWjn_tjf3bWAZkSlmMyw-89" style="edgeStyle=orthogonalEdgeStyle;rounded=1;orthogonalLoop=1;jettySize=auto;html=1;exitX=1;exitY=0.5;exitDx=0;exitDy=0;entryX=0;entryY=1;entryDx=0;entryDy=0;entryPerimeter=0;endArrow=none;endFill=0;fillColor=#008a00;strokeColor=#007a00;strokeWidth=3;curved=0;" edge="1" parent="1" source="TWjn_tjf3bWAZkSlmMyw-61" target="TWjn_tjf3bWAZkSlmMyw-32">
          <mxGeometry relative="1" as="geometry">
            <mxPoint x="-160" y="450" as="sourcePoint" />
            <mxPoint x="95" y="450" as="targetPoint" />
            <Array as="points">
              <mxPoint x="-80" y="380" />
              <mxPoint x="-80" y="350" />
              <mxPoint x="-33" y="350" />
            </Array>
          </mxGeometry>
        </mxCell>
        <mxCell id="TWjn_tjf3bWAZkSlmMyw-90" style="edgeStyle=orthogonalEdgeStyle;rounded=1;orthogonalLoop=1;jettySize=auto;html=1;exitX=1;exitY=0.5;exitDx=0;exitDy=0;entryX=1;entryY=1;entryDx=0;entryDy=0;entryPerimeter=0;endArrow=none;endFill=0;fillColor=#008a00;strokeColor=#007a00;strokeWidth=3;curved=0;" edge="1" parent="1" source="TWjn_tjf3bWAZkSlmMyw-62" target="TWjn_tjf3bWAZkSlmMyw-32">
          <mxGeometry relative="1" as="geometry">
            <mxPoint x="-160" y="390" as="sourcePoint" />
            <mxPoint x="77" y="340" as="targetPoint" />
            <Array as="points">
              <mxPoint x="-80" y="400" />
              <mxPoint x="-80" y="430" />
            </Array>
          </mxGeometry>
        </mxCell>
        <mxCell id="TWjn_tjf3bWAZkSlmMyw-100" value="" style="pointerEvents=1;verticalLabelPosition=bottom;shadow=0;dashed=0;align=center;html=1;verticalAlign=top;shape=mxgraph.electrical.signal_sources.signal_ground;strokeWidth=3;" vertex="1" parent="1">
          <mxGeometry x="-127.5" y="180" width="25" height="20" as="geometry" />
        </mxCell>
        <mxCell id="TWjn_tjf3bWAZkSlmMyw-101" style="edgeStyle=orthogonalEdgeStyle;rounded=1;orthogonalLoop=1;jettySize=auto;html=1;exitX=1;exitY=0.5;exitDx=0;exitDy=0;entryX=0.5;entryY=0;entryDx=0;entryDy=0;entryPerimeter=0;endArrow=none;endFill=0;strokeWidth=3;curved=0;" edge="1" parent="1" source="TWjn_tjf3bWAZkSlmMyw-73" target="TWjn_tjf3bWAZkSlmMyw-100">
          <mxGeometry relative="1" as="geometry" />
        </mxCell>
        <mxCell id="TWjn_tjf3bWAZkSlmMyw-114" style="edgeStyle=orthogonalEdgeStyle;rounded=0;orthogonalLoop=1;jettySize=auto;html=1;exitX=0.5;exitY=0;exitDx=0;exitDy=0;exitPerimeter=0;entryX=0.5;entryY=1;entryDx=0;entryDy=0;strokeColor=default;align=center;verticalAlign=middle;fontFamily=Helvetica;fontSize=11;fontColor=default;labelBackgroundColor=default;endArrow=none;endFill=0;strokeWidth=3;" edge="1" parent="1" source="TWjn_tjf3bWAZkSlmMyw-104" target="TWjn_tjf3bWAZkSlmMyw-9">
          <mxGeometry relative="1" as="geometry">
            <Array as="points">
              <mxPoint x="240" y="400" />
              <mxPoint x="240" y="400" />
            </Array>
          </mxGeometry>
        </mxCell>
        <mxCell id="TWjn_tjf3bWAZkSlmMyw-104" value="" style="pointerEvents=1;verticalLabelPosition=bottom;shadow=0;dashed=0;align=center;html=1;verticalAlign=top;shape=mxgraph.electrical.signal_sources.signal_ground;strokeWidth=3;" vertex="1" parent="1">
          <mxGeometry x="227.5" y="410" width="25" height="20" as="geometry" />
        </mxCell>
        <mxCell id="TWjn_tjf3bWAZkSlmMyw-106" value="SDA" style="text;html=1;align=left;verticalAlign=middle;whiteSpace=wrap;rounded=0;glass=0;" vertex="1" parent="1">
          <mxGeometry x="-550" y="190" width="60" height="20" as="geometry" />
        </mxCell>
        <mxCell id="TWjn_tjf3bWAZkSlmMyw-107" value="SCL" style="text;html=1;align=left;verticalAlign=middle;whiteSpace=wrap;rounded=0;glass=0;" vertex="1" parent="1">
          <mxGeometry x="-550" y="210" width="60" height="20" as="geometry" />
        </mxCell>
        <mxCell id="TWjn_tjf3bWAZkSlmMyw-108" value="GND" style="text;html=1;align=right;verticalAlign=middle;whiteSpace=wrap;rounded=0;" vertex="1" parent="1">
          <mxGeometry x="-470" y="150" width="60" height="20" as="geometry" />
        </mxCell>
        <mxCell id="TWjn_tjf3bWAZkSlmMyw-112" style="edgeStyle=orthogonalEdgeStyle;rounded=1;orthogonalLoop=1;jettySize=auto;html=1;exitX=0.5;exitY=0;exitDx=0;exitDy=0;exitPerimeter=0;entryX=1;entryY=0.5;entryDx=0;entryDy=0;strokeColor=default;align=center;verticalAlign=middle;fontFamily=Helvetica;fontSize=11;fontColor=default;labelBackgroundColor=default;endArrow=none;endFill=0;strokeWidth=3;curved=0;" edge="1" parent="1" source="TWjn_tjf3bWAZkSlmMyw-110" target="TWjn_tjf3bWAZkSlmMyw-108">
          <mxGeometry relative="1" as="geometry" />
        </mxCell>
        <mxCell id="TWjn_tjf3bWAZkSlmMyw-110" value="" style="pointerEvents=1;verticalLabelPosition=bottom;shadow=0;dashed=0;align=center;html=1;verticalAlign=top;shape=mxgraph.electrical.signal_sources.signal_ground;strokeWidth=3;" vertex="1" parent="1">
          <mxGeometry x="-367.5" y="180" width="25" height="20" as="geometry" />
        </mxCell>
        <mxCell id="TWjn_tjf3bWAZkSlmMyw-113" style="edgeStyle=orthogonalEdgeStyle;rounded=1;orthogonalLoop=1;jettySize=auto;html=1;exitX=0;exitY=0.5;exitDx=0;exitDy=0;entryX=1;entryY=0.5;entryDx=0;entryDy=0;strokeColor=#eb0000;align=center;verticalAlign=middle;fontFamily=Helvetica;fontSize=11;fontColor=default;labelBackgroundColor=default;endArrow=none;endFill=0;strokeWidth=3;fillColor=#a20025;curved=0;" edge="1" parent="1" source="TWjn_tjf3bWAZkSlmMyw-72" target="TWjn_tjf3bWAZkSlmMyw-84">
          <mxGeometry relative="1" as="geometry" />
        </mxCell>
        <mxCell id="TWjn_tjf3bWAZkSlmMyw-132" style="edgeStyle=orthogonalEdgeStyle;rounded=0;orthogonalLoop=1;jettySize=auto;html=1;exitX=1;exitY=0.5;exitDx=0;exitDy=0;entryX=0;entryY=0.5;entryDx=0;entryDy=0;strokeColor=#3700CC;align=center;verticalAlign=middle;fontFamily=Helvetica;fontSize=11;fontColor=default;labelBackgroundColor=default;endArrow=none;endFill=0;strokeWidth=3;fillColor=#6a00ff;" edge="1" parent="1" source="TWjn_tjf3bWAZkSlmMyw-115" target="TWjn_tjf3bWAZkSlmMyw-65">
          <mxGeometry relative="1" as="geometry" />
        </mxCell>
        <mxCell id="TWjn_tjf3bWAZkSlmMyw-115" value="Pin 12" style="text;html=1;align=right;verticalAlign=middle;whiteSpace=wrap;rounded=0;" vertex="1" parent="1">
          <mxGeometry x="-470" y="250" width="60" height="20" as="geometry" />
        </mxCell>
        <mxCell id="TWjn_tjf3bWAZkSlmMyw-129" style="edgeStyle=orthogonalEdgeStyle;rounded=0;orthogonalLoop=1;jettySize=auto;html=1;exitX=1;exitY=0.5;exitDx=0;exitDy=0;entryX=0;entryY=0.5;entryDx=0;entryDy=0;strokeColor=#3700CC;align=center;verticalAlign=middle;fontFamily=Helvetica;fontSize=11;fontColor=default;labelBackgroundColor=default;endArrow=none;endFill=0;strokeWidth=3;fillColor=#6a00ff;" edge="1" parent="1" source="TWjn_tjf3bWAZkSlmMyw-116" target="TWjn_tjf3bWAZkSlmMyw-50">
          <mxGeometry relative="1" as="geometry" />
        </mxCell>
        <mxCell id="TWjn_tjf3bWAZkSlmMyw-116" value="Pin 11" style="text;html=1;align=right;verticalAlign=middle;whiteSpace=wrap;rounded=0;" vertex="1" parent="1">
          <mxGeometry x="-470" y="290" width="60" height="20" as="geometry" />
        </mxCell>
        <mxCell id="TWjn_tjf3bWAZkSlmMyw-128" style="edgeStyle=orthogonalEdgeStyle;rounded=0;orthogonalLoop=1;jettySize=auto;html=1;exitX=1;exitY=0.5;exitDx=0;exitDy=0;entryX=0;entryY=0.5;entryDx=0;entryDy=0;strokeColor=#3700CC;align=center;verticalAlign=middle;fontFamily=Helvetica;fontSize=11;fontColor=default;labelBackgroundColor=default;endArrow=none;endFill=0;strokeWidth=3;fillColor=#6a00ff;" edge="1" parent="1" source="TWjn_tjf3bWAZkSlmMyw-117" target="TWjn_tjf3bWAZkSlmMyw-52">
          <mxGeometry relative="1" as="geometry" />
        </mxCell>
        <mxCell id="TWjn_tjf3bWAZkSlmMyw-117" value="Pin 10" style="text;html=1;align=right;verticalAlign=middle;whiteSpace=wrap;rounded=0;" vertex="1" parent="1">
          <mxGeometry x="-470" y="310" width="60" height="20" as="geometry" />
        </mxCell>
        <mxCell id="TWjn_tjf3bWAZkSlmMyw-127" style="edgeStyle=orthogonalEdgeStyle;rounded=0;orthogonalLoop=1;jettySize=auto;html=1;exitX=1;exitY=0.5;exitDx=0;exitDy=0;entryX=0;entryY=0.5;entryDx=0;entryDy=0;strokeColor=#3700CC;align=center;verticalAlign=middle;fontFamily=Helvetica;fontSize=11;fontColor=default;labelBackgroundColor=default;endArrow=none;endFill=0;strokeWidth=3;fillColor=#6a00ff;" edge="1" parent="1" source="TWjn_tjf3bWAZkSlmMyw-118" target="TWjn_tjf3bWAZkSlmMyw-54">
          <mxGeometry relative="1" as="geometry" />
        </mxCell>
        <mxCell id="TWjn_tjf3bWAZkSlmMyw-118" value="Pin 9" style="text;html=1;align=right;verticalAlign=middle;whiteSpace=wrap;rounded=0;" vertex="1" parent="1">
          <mxGeometry x="-470" y="330" width="60" height="20" as="geometry" />
        </mxCell>
        <mxCell id="TWjn_tjf3bWAZkSlmMyw-126" style="edgeStyle=orthogonalEdgeStyle;rounded=0;orthogonalLoop=1;jettySize=auto;html=1;exitX=1;exitY=0.5;exitDx=0;exitDy=0;entryX=0;entryY=0.5;entryDx=0;entryDy=0;strokeColor=#3700CC;align=center;verticalAlign=middle;fontFamily=Helvetica;fontSize=11;fontColor=default;labelBackgroundColor=default;endArrow=none;endFill=0;strokeWidth=3;fillColor=#6a00ff;" edge="1" parent="1" source="TWjn_tjf3bWAZkSlmMyw-119" target="TWjn_tjf3bWAZkSlmMyw-55">
          <mxGeometry relative="1" as="geometry" />
        </mxCell>
        <mxCell id="TWjn_tjf3bWAZkSlmMyw-119" value="Pin 8" style="text;html=1;align=right;verticalAlign=middle;whiteSpace=wrap;rounded=0;" vertex="1" parent="1">
          <mxGeometry x="-470" y="370" width="60" height="20" as="geometry" />
        </mxCell>
        <mxCell id="TWjn_tjf3bWAZkSlmMyw-125" style="edgeStyle=orthogonalEdgeStyle;rounded=0;orthogonalLoop=1;jettySize=auto;html=1;exitX=1;exitY=0.5;exitDx=0;exitDy=0;entryX=0;entryY=0.5;entryDx=0;entryDy=0;strokeColor=#3700CC;align=center;verticalAlign=middle;fontFamily=Helvetica;fontSize=11;fontColor=default;labelBackgroundColor=default;endArrow=none;endFill=0;strokeWidth=3;fillColor=#6a00ff;" edge="1" parent="1" source="TWjn_tjf3bWAZkSlmMyw-120" target="TWjn_tjf3bWAZkSlmMyw-56">
          <mxGeometry relative="1" as="geometry" />
        </mxCell>
        <mxCell id="TWjn_tjf3bWAZkSlmMyw-120" value="Pin 7" style="text;html=1;align=right;verticalAlign=middle;whiteSpace=wrap;rounded=0;" vertex="1" parent="1">
          <mxGeometry x="-470" y="390" width="60" height="20" as="geometry" />
        </mxCell>
        <mxCell id="TWjn_tjf3bWAZkSlmMyw-124" style="edgeStyle=orthogonalEdgeStyle;rounded=0;orthogonalLoop=1;jettySize=auto;html=1;exitX=1;exitY=0.5;exitDx=0;exitDy=0;entryX=0;entryY=0.5;entryDx=0;entryDy=0;strokeColor=#3700CC;align=center;verticalAlign=middle;fontFamily=Helvetica;fontSize=11;fontColor=default;labelBackgroundColor=default;endArrow=none;endFill=0;strokeWidth=3;fillColor=#6a00ff;" edge="1" parent="1" source="TWjn_tjf3bWAZkSlmMyw-121" target="TWjn_tjf3bWAZkSlmMyw-57">
          <mxGeometry relative="1" as="geometry" />
        </mxCell>
        <mxCell id="TWjn_tjf3bWAZkSlmMyw-121" value="Pin 6" style="text;html=1;align=right;verticalAlign=middle;whiteSpace=wrap;rounded=0;" vertex="1" parent="1">
          <mxGeometry x="-470" y="430" width="60" height="20" as="geometry" />
        </mxCell>
        <mxCell id="TWjn_tjf3bWAZkSlmMyw-123" style="edgeStyle=orthogonalEdgeStyle;rounded=0;orthogonalLoop=1;jettySize=auto;html=1;exitX=1;exitY=0.5;exitDx=0;exitDy=0;entryX=0;entryY=0.5;entryDx=0;entryDy=0;strokeColor=#3700CC;align=center;verticalAlign=middle;fontFamily=Helvetica;fontSize=11;fontColor=default;labelBackgroundColor=default;endArrow=none;endFill=0;strokeWidth=3;fillColor=#6a00ff;" edge="1" parent="1" source="TWjn_tjf3bWAZkSlmMyw-122" target="TWjn_tjf3bWAZkSlmMyw-58">
          <mxGeometry relative="1" as="geometry" />
        </mxCell>
        <mxCell id="TWjn_tjf3bWAZkSlmMyw-122" value="Pin 5" style="text;html=1;align=right;verticalAlign=middle;whiteSpace=wrap;rounded=0;" vertex="1" parent="1">
          <mxGeometry x="-470" y="450" width="60" height="20" as="geometry" />
        </mxCell>
        <mxCell id="TWjn_tjf3bWAZkSlmMyw-154" value="&lt;font style=&quot;font-size: 19px;&quot;&gt;NUCLEO-L476RG&lt;/font&gt;" style="text;html=1;align=center;verticalAlign=middle;whiteSpace=wrap;rounded=0;fontSize=19;" vertex="1" parent="1">
          <mxGeometry x="-560" y="560" width="160" height="30" as="geometry" />
        </mxCell>
        <mxCell id="TWjn_tjf3bWAZkSlmMyw-157" value="" style="group" vertex="1" connectable="0" parent="1">
          <mxGeometry x="-280" y="710" width="130" height="170" as="geometry" />
        </mxCell>
        <mxCell id="TWjn_tjf3bWAZkSlmMyw-141" value="&lt;font style=&quot;font-size: 20px;&quot;&gt;ESC&lt;/font&gt;" style="text;html=1;align=center;verticalAlign=middle;whiteSpace=wrap;rounded=0;container=0;" vertex="1" parent="TWjn_tjf3bWAZkSlmMyw-157">
          <mxGeometry width="130" height="30" as="geometry" />
        </mxCell>
        <mxCell id="TWjn_tjf3bWAZkSlmMyw-137" value="" style="rounded=0;whiteSpace=wrap;html=1;container=0;" vertex="1" parent="TWjn_tjf3bWAZkSlmMyw-157">
          <mxGeometry y="30" width="130" height="140" as="geometry" />
        </mxCell>
        <mxCell id="TWjn_tjf3bWAZkSlmMyw-138" value="VCC" style="text;html=1;align=left;verticalAlign=middle;whiteSpace=wrap;rounded=0;container=0;" vertex="1" parent="TWjn_tjf3bWAZkSlmMyw-157">
          <mxGeometry x="10" y="40" width="50" height="20" as="geometry" />
        </mxCell>
        <mxCell id="TWjn_tjf3bWAZkSlmMyw-139" value="PWM" style="text;html=1;align=left;verticalAlign=middle;whiteSpace=wrap;rounded=0;container=0;" vertex="1" parent="TWjn_tjf3bWAZkSlmMyw-157">
          <mxGeometry x="10" y="60" width="50" height="20" as="geometry" />
        </mxCell>
        <mxCell id="TWjn_tjf3bWAZkSlmMyw-140" value="GND" style="text;html=1;align=left;verticalAlign=middle;whiteSpace=wrap;rounded=0;container=0;" vertex="1" parent="TWjn_tjf3bWAZkSlmMyw-157">
          <mxGeometry x="10" y="80" width="50" height="20" as="geometry" />
        </mxCell>
        <mxCell id="TWjn_tjf3bWAZkSlmMyw-160" style="edgeStyle=orthogonalEdgeStyle;rounded=0;orthogonalLoop=1;jettySize=auto;html=1;exitX=1;exitY=0.5;exitDx=0;exitDy=0;strokeColor=#ebc700;align=center;verticalAlign=middle;fontFamily=Helvetica;fontSize=11;fontColor=default;labelBackgroundColor=default;endArrow=none;endFill=0;strokeWidth=3;fillColor=#e3c800;" edge="1" parent="TWjn_tjf3bWAZkSlmMyw-157" source="TWjn_tjf3bWAZkSlmMyw-142">
          <mxGeometry relative="1" as="geometry">
            <mxPoint x="210" y="110" as="targetPoint" />
          </mxGeometry>
        </mxCell>
        <mxCell id="TWjn_tjf3bWAZkSlmMyw-142" value="&lt;span style=&quot;text-align: left;&quot;&gt;&lt;font style=&quot;font-size: 12px;&quot;&gt;Φ 1&lt;/font&gt;&lt;/span&gt;" style="text;html=1;align=right;verticalAlign=middle;whiteSpace=wrap;rounded=0;container=0;fontColor=default;labelBackgroundColor=none;" vertex="1" parent="TWjn_tjf3bWAZkSlmMyw-157">
          <mxGeometry x="70" y="100" width="50" height="20" as="geometry" />
        </mxCell>
        <mxCell id="TWjn_tjf3bWAZkSlmMyw-161" style="edgeStyle=orthogonalEdgeStyle;rounded=0;orthogonalLoop=1;jettySize=auto;html=1;exitX=1;exitY=0.5;exitDx=0;exitDy=0;strokeColor=#B20000;align=center;verticalAlign=middle;fontFamily=Helvetica;fontSize=11;fontColor=default;labelBackgroundColor=default;endArrow=none;endFill=0;strokeWidth=3;fillColor=#e51400;" edge="1" parent="TWjn_tjf3bWAZkSlmMyw-157" source="TWjn_tjf3bWAZkSlmMyw-143">
          <mxGeometry relative="1" as="geometry">
            <mxPoint x="210" y="130.140350877193" as="targetPoint" />
          </mxGeometry>
        </mxCell>
        <mxCell id="TWjn_tjf3bWAZkSlmMyw-143" value="&lt;span style=&quot;text-align: left;&quot;&gt;Φ 2&lt;/span&gt;" style="text;html=1;align=right;verticalAlign=middle;whiteSpace=wrap;rounded=0;container=0;fontColor=default;labelBackgroundColor=none;" vertex="1" parent="TWjn_tjf3bWAZkSlmMyw-157">
          <mxGeometry x="70" y="120" width="50" height="20" as="geometry" />
        </mxCell>
        <mxCell id="TWjn_tjf3bWAZkSlmMyw-162" style="edgeStyle=orthogonalEdgeStyle;rounded=0;orthogonalLoop=1;jettySize=auto;html=1;exitX=1;exitY=0.5;exitDx=0;exitDy=0;strokeColor=#006EAF;align=center;verticalAlign=middle;fontFamily=Helvetica;fontSize=11;fontColor=default;labelBackgroundColor=default;endArrow=none;endFill=0;strokeWidth=3;fillColor=#1ba1e2;" edge="1" parent="TWjn_tjf3bWAZkSlmMyw-157" source="TWjn_tjf3bWAZkSlmMyw-144">
          <mxGeometry relative="1" as="geometry">
            <mxPoint x="210" y="150.140350877193" as="targetPoint" />
          </mxGeometry>
        </mxCell>
        <mxCell id="TWjn_tjf3bWAZkSlmMyw-144" value="&lt;span style=&quot;text-align: left;&quot;&gt;Φ 3&lt;/span&gt;" style="text;html=1;align=right;verticalAlign=middle;whiteSpace=wrap;rounded=0;container=0;fontColor=default;labelBackgroundColor=none;" vertex="1" parent="TWjn_tjf3bWAZkSlmMyw-157">
          <mxGeometry x="70" y="140" width="50" height="20" as="geometry" />
        </mxCell>
        <mxCell id="TWjn_tjf3bWAZkSlmMyw-155" value="&lt;span style=&quot;&quot;&gt;&lt;font style=&quot;font-size: 12px;&quot;&gt;VMOT +&lt;/font&gt;&lt;/span&gt;" style="text;html=1;align=left;verticalAlign=middle;whiteSpace=wrap;rounded=0;container=0;fontColor=default;labelBackgroundColor=none;" vertex="1" parent="TWjn_tjf3bWAZkSlmMyw-157">
          <mxGeometry x="10" y="120" width="50" height="20" as="geometry" />
        </mxCell>
        <mxCell id="TWjn_tjf3bWAZkSlmMyw-156" value="&lt;span style=&quot;&quot;&gt;&lt;font style=&quot;font-size: 12px;&quot;&gt;VMOT -&lt;/font&gt;&lt;/span&gt;" style="text;html=1;align=left;verticalAlign=middle;whiteSpace=wrap;rounded=0;container=0;fontColor=default;labelBackgroundColor=none;" vertex="1" parent="TWjn_tjf3bWAZkSlmMyw-157">
          <mxGeometry x="10" y="140" width="50" height="20" as="geometry" />
        </mxCell>
        <mxCell id="TWjn_tjf3bWAZkSlmMyw-146" style="edgeStyle=orthogonalEdgeStyle;rounded=0;orthogonalLoop=1;jettySize=auto;html=1;exitX=0;exitY=0.5;exitDx=0;exitDy=0;strokeColor=#FF3399;align=center;verticalAlign=middle;fontFamily=Helvetica;fontSize=11;fontColor=default;labelBackgroundColor=default;endArrow=none;endFill=0;entryX=1;entryY=0.5;entryDx=0;entryDy=0;strokeWidth=3;" edge="1" parent="1" source="TWjn_tjf3bWAZkSlmMyw-139" target="TWjn_tjf3bWAZkSlmMyw-163">
          <mxGeometry relative="1" as="geometry">
            <mxPoint x="-370" y="779.8095238095239" as="targetPoint" />
          </mxGeometry>
        </mxCell>
        <mxCell id="TWjn_tjf3bWAZkSlmMyw-158" style="edgeStyle=orthogonalEdgeStyle;rounded=1;orthogonalLoop=1;jettySize=auto;html=1;exitX=0;exitY=0.5;exitDx=0;exitDy=0;entryX=0.5;entryY=0;entryDx=0;entryDy=0;strokeColor=#A50040;align=center;verticalAlign=middle;fontFamily=Helvetica;fontSize=11;fontColor=default;labelBackgroundColor=default;endArrow=none;endFill=0;strokeWidth=3;fillColor=#d80073;curved=0;" edge="1" parent="1" source="TWjn_tjf3bWAZkSlmMyw-155" target="TWjn_tjf3bWAZkSlmMyw-10">
          <mxGeometry relative="1" as="geometry" />
        </mxCell>
        <mxCell id="TWjn_tjf3bWAZkSlmMyw-159" style="edgeStyle=orthogonalEdgeStyle;rounded=1;orthogonalLoop=1;jettySize=auto;html=1;exitX=0.5;exitY=1;exitDx=0;exitDy=0;entryX=0;entryY=0.5;entryDx=0;entryDy=0;strokeColor=default;align=center;verticalAlign=middle;fontFamily=Helvetica;fontSize=11;fontColor=default;labelBackgroundColor=default;endArrow=none;endFill=0;strokeWidth=3;curved=0;" edge="1" parent="1" source="TWjn_tjf3bWAZkSlmMyw-10" target="TWjn_tjf3bWAZkSlmMyw-156">
          <mxGeometry relative="1" as="geometry" />
        </mxCell>
        <mxCell id="TWjn_tjf3bWAZkSlmMyw-13" value="M" style="verticalLabelPosition=middle;shadow=0;dashed=0;align=center;html=1;verticalAlign=middle;strokeWidth=3;shape=ellipse;fontSize=32;perimeter=ellipsePerimeter;" vertex="1" parent="1">
          <mxGeometry x="-110" y="800" width="80" height="80" as="geometry" />
        </mxCell>
        <mxCell id="TWjn_tjf3bWAZkSlmMyw-163" value="PB10" style="text;html=1;align=right;verticalAlign=middle;whiteSpace=wrap;rounded=0;container=0;" vertex="1" parent="1">
          <mxGeometry x="-460" y="770" width="50" height="20" as="geometry" />
        </mxCell>
        <mxCell id="TWjn_tjf3bWAZkSlmMyw-172" value="PA9" style="text;html=1;align=right;verticalAlign=middle;whiteSpace=wrap;rounded=0;container=0;" vertex="1" parent="1">
          <mxGeometry x="-460" y="610" width="50" height="20" as="geometry" />
        </mxCell>
        <mxCell id="TWjn_tjf3bWAZkSlmMyw-168" style="edgeStyle=orthogonalEdgeStyle;rounded=0;orthogonalLoop=1;jettySize=auto;html=1;exitX=0;exitY=0.5;exitDx=0;exitDy=0;strokeColor=#FF3399;align=center;verticalAlign=middle;fontFamily=Helvetica;fontSize=11;fontColor=default;labelBackgroundColor=default;endArrow=none;endFill=0;entryX=1;entryY=0.5;entryDx=0;entryDy=0;strokeWidth=3;" edge="1" parent="1" source="TWjn_tjf3bWAZkSlmMyw-41" target="TWjn_tjf3bWAZkSlmMyw-172">
          <mxGeometry relative="1" as="geometry">
            <mxPoint x="-340" y="560" as="targetPoint" />
          </mxGeometry>
        </mxCell>
        <mxCell id="TWjn_tjf3bWAZkSlmMyw-173" value="SDA" style="text;html=1;align=left;verticalAlign=middle;whiteSpace=wrap;rounded=0;glass=0;" vertex="1" parent="1">
          <mxGeometry x="-550" y="710" width="60" height="20" as="geometry" />
        </mxCell>
        <mxCell id="TWjn_tjf3bWAZkSlmMyw-174" value="SCL" style="text;html=1;align=left;verticalAlign=middle;whiteSpace=wrap;rounded=0;glass=0;" vertex="1" parent="1">
          <mxGeometry x="-550" y="690" width="60" height="20" as="geometry" />
        </mxCell>
        <mxCell id="TWjn_tjf3bWAZkSlmMyw-170" style="edgeStyle=orthogonalEdgeStyle;rounded=1;orthogonalLoop=1;jettySize=auto;html=1;exitX=0;exitY=0.5;exitDx=0;exitDy=0;strokeColor=#eb0000;align=center;verticalAlign=middle;fontFamily=Helvetica;fontSize=11;fontColor=default;labelBackgroundColor=default;endArrow=none;endFill=0;entryX=0;entryY=0.5;entryDx=0;entryDy=0;strokeWidth=3;fillColor=#a20025;curved=0;" edge="1" parent="1" source="TWjn_tjf3bWAZkSlmMyw-39" target="TWjn_tjf3bWAZkSlmMyw-72">
          <mxGeometry relative="1" as="geometry">
            <mxPoint x="-740" y="500" as="targetPoint" />
            <Array as="points">
              <mxPoint x="-340" y="590" />
              <mxPoint x="-340" y="530" />
              <mxPoint x="-709" y="530" />
              <mxPoint x="-709" y="30" />
              <mxPoint x="-360" y="30" />
              <mxPoint x="-360" y="110" />
            </Array>
          </mxGeometry>
        </mxCell>
        <mxCell id="TWjn_tjf3bWAZkSlmMyw-182" style="edgeStyle=orthogonalEdgeStyle;rounded=1;orthogonalLoop=1;jettySize=auto;html=1;exitX=0;exitY=0.5;exitDx=0;exitDy=0;strokeColor=#eb0000;align=center;verticalAlign=middle;fontFamily=Helvetica;fontSize=11;fontColor=default;labelBackgroundColor=default;endArrow=none;endFill=0;strokeWidth=3;fillColor=#a20025;curved=0;" edge="1" parent="1" source="TWjn_tjf3bWAZkSlmMyw-177">
          <mxGeometry relative="1" as="geometry">
            <mxPoint x="-620" y="530" as="targetPoint" />
            <Array as="points">
              <mxPoint x="-600" y="620" />
              <mxPoint x="-600" y="530" />
            </Array>
          </mxGeometry>
        </mxCell>
        <mxCell id="TWjn_tjf3bWAZkSlmMyw-177" value="VCC" style="text;html=1;align=left;verticalAlign=middle;whiteSpace=wrap;rounded=0;" vertex="1" parent="1">
          <mxGeometry x="-550" y="610" width="50" height="20" as="geometry" />
        </mxCell>
        <mxCell id="TWjn_tjf3bWAZkSlmMyw-178" style="edgeStyle=orthogonalEdgeStyle;rounded=1;orthogonalLoop=1;jettySize=auto;html=1;exitX=0.5;exitY=0;exitDx=0;exitDy=0;exitPerimeter=0;entryX=0;entryY=0.5;entryDx=0;entryDy=0;strokeColor=default;align=center;verticalAlign=middle;fontFamily=Helvetica;fontSize=11;fontColor=default;labelBackgroundColor=default;endArrow=none;endFill=0;strokeWidth=3;curved=0;" edge="1" parent="1" source="TWjn_tjf3bWAZkSlmMyw-179" target="TWjn_tjf3bWAZkSlmMyw-140">
          <mxGeometry relative="1" as="geometry">
            <mxPoint x="-332.5" y="770" as="targetPoint" />
            <Array as="points">
              <mxPoint x="-317" y="800" />
            </Array>
          </mxGeometry>
        </mxCell>
        <mxCell id="TWjn_tjf3bWAZkSlmMyw-179" value="" style="pointerEvents=1;verticalLabelPosition=bottom;shadow=0;dashed=0;align=center;html=1;verticalAlign=top;shape=mxgraph.electrical.signal_sources.signal_ground;strokeWidth=3;" vertex="1" parent="1">
          <mxGeometry x="-330" y="810" width="25" height="20" as="geometry" />
        </mxCell>
        <mxCell id="TWjn_tjf3bWAZkSlmMyw-180" style="edgeStyle=orthogonalEdgeStyle;rounded=1;orthogonalLoop=1;jettySize=auto;html=1;exitX=0.5;exitY=0;exitDx=0;exitDy=0;exitPerimeter=0;entryX=0;entryY=0.5;entryDx=0;entryDy=0;strokeColor=default;align=center;verticalAlign=middle;fontFamily=Helvetica;fontSize=11;fontColor=default;labelBackgroundColor=default;endArrow=none;endFill=0;strokeWidth=3;curved=0;" edge="1" parent="1" source="TWjn_tjf3bWAZkSlmMyw-181" target="TWjn_tjf3bWAZkSlmMyw-42">
          <mxGeometry relative="1" as="geometry">
            <mxPoint x="-270" y="650" as="targetPoint" />
            <Array as="points">
              <mxPoint x="-317" y="650" />
            </Array>
          </mxGeometry>
        </mxCell>
        <mxCell id="TWjn_tjf3bWAZkSlmMyw-181" value="" style="pointerEvents=1;verticalLabelPosition=bottom;shadow=0;dashed=0;align=center;html=1;verticalAlign=top;shape=mxgraph.electrical.signal_sources.signal_ground;strokeWidth=3;" vertex="1" parent="1">
          <mxGeometry x="-330" y="670" width="25" height="20" as="geometry" />
        </mxCell>
        <mxCell id="TWjn_tjf3bWAZkSlmMyw-183" value="&lt;font style=&quot;font-size: 20px;&quot;&gt;12V&lt;/font&gt;" style="text;html=1;align=center;verticalAlign=middle;whiteSpace=wrap;rounded=0;container=0;" vertex="1" parent="1">
          <mxGeometry x="-442.5" y="870" width="75" height="30" as="geometry" />
        </mxCell>
        <mxCell id="TWjn_tjf3bWAZkSlmMyw-184" value="&lt;font style=&quot;font-size: 20px;&quot;&gt;24V&lt;/font&gt;" style="text;html=1;align=center;verticalAlign=middle;whiteSpace=wrap;rounded=0;container=0;" vertex="1" parent="1">
          <mxGeometry x="252.5" y="285" width="75" height="30" as="geometry" />
        </mxCell>
        <mxCell id="TWjn_tjf3bWAZkSlmMyw-175" style="edgeStyle=orthogonalEdgeStyle;rounded=1;orthogonalLoop=1;jettySize=auto;html=1;exitX=0;exitY=0.5;exitDx=0;exitDy=0;entryX=0;entryY=0.5;entryDx=0;entryDy=0;strokeColor=#00CCCC;align=center;verticalAlign=middle;fontFamily=Helvetica;fontSize=11;fontColor=default;labelBackgroundColor=default;endArrow=none;endFill=0;strokeWidth=3;jumpStyle=arc;curved=0;" edge="1" parent="1" source="TWjn_tjf3bWAZkSlmMyw-173" target="TWjn_tjf3bWAZkSlmMyw-106">
          <mxGeometry relative="1" as="geometry">
            <Array as="points">
              <mxPoint x="-660" y="720" />
              <mxPoint x="-660" y="200" />
            </Array>
          </mxGeometry>
        </mxCell>
        <mxCell id="TWjn_tjf3bWAZkSlmMyw-176" style="edgeStyle=orthogonalEdgeStyle;rounded=1;orthogonalLoop=1;jettySize=auto;html=1;exitX=0;exitY=0.5;exitDx=0;exitDy=0;entryX=0;entryY=0.5;entryDx=0;entryDy=0;strokeColor=#00CCCC;align=center;verticalAlign=middle;fontFamily=Helvetica;fontSize=11;fontColor=default;labelBackgroundColor=default;endArrow=none;endFill=0;strokeWidth=3;jumpStyle=arc;curved=0;" edge="1" parent="1" source="TWjn_tjf3bWAZkSlmMyw-174" target="TWjn_tjf3bWAZkSlmMyw-107">
          <mxGeometry relative="1" as="geometry">
            <Array as="points">
              <mxPoint x="-640" y="700" />
              <mxPoint x="-640" y="220" />
            </Array>
          </mxGeometry>
        </mxCell>
        <mxCell id="TWjn_tjf3bWAZkSlmMyw-189" value="GND" style="text;html=1;align=left;verticalAlign=middle;whiteSpace=wrap;rounded=0;container=0;" vertex="1" parent="1">
          <mxGeometry x="-550" y="780" width="50" height="20" as="geometry" />
        </mxCell>
        <mxCell id="TWjn_tjf3bWAZkSlmMyw-190" style="edgeStyle=orthogonalEdgeStyle;rounded=1;orthogonalLoop=1;jettySize=auto;html=1;exitX=0.5;exitY=0;exitDx=0;exitDy=0;exitPerimeter=0;entryX=0;entryY=0.5;entryDx=0;entryDy=0;strokeColor=default;align=center;verticalAlign=middle;fontFamily=Helvetica;fontSize=11;fontColor=default;labelBackgroundColor=default;endArrow=none;endFill=0;strokeWidth=3;curved=0;" edge="1" parent="1" source="TWjn_tjf3bWAZkSlmMyw-191" target="TWjn_tjf3bWAZkSlmMyw-189">
          <mxGeometry relative="1" as="geometry">
            <mxPoint x="-612.5" y="760" as="targetPoint" />
            <Array as="points">
              <mxPoint x="-597" y="790" />
            </Array>
          </mxGeometry>
        </mxCell>
        <mxCell id="TWjn_tjf3bWAZkSlmMyw-191" value="" style="pointerEvents=1;verticalLabelPosition=bottom;shadow=0;dashed=0;align=center;html=1;verticalAlign=top;shape=mxgraph.electrical.signal_sources.signal_ground;strokeWidth=3;" vertex="1" parent="1">
          <mxGeometry x="-610" y="800" width="25" height="20" as="geometry" />
        </mxCell>
      </root>
    </mxGraphModel>
  </diagram>
</mxfile>
